<svg xmlns="http://www.w3.org/2000/svg" width="1698" height="618" viewBox="0 0 1698 618">
<g>
<path d="M 809.03 491.96 C797.92,493.32 777.57,493.12 767.40,491.54 C743.81,487.88 724.09,477.42 710.86,461.56 C707.39,457.40 704.21,454.00 703.80,454.00 C703.38,454.00 702.92,461.76 702.77,471.25 L 702.50 488.50 L 648.50 488.50 L 648.25 298.75 L 647.99 109.00 L 706.00 109.00 L 706.00 250.30 L 711.75 244.85 C724.00,233.22 735.47,226.49 752.08,221.18 C767.12,216.37 773.68,215.49 794.00,215.57 C809.08,215.63 814.39,216.05 822.73,217.84 C839.84,221.51 856.25,228.35 869.50,237.34 C878.04,243.14 891.67,256.60 898.25,265.74 C904.43,274.33 912.67,290.13 915.84,299.50 C931.95,347.09 925.98,399.99 900.24,437.84 C879.50,468.35 847.75,487.18 809.03,491.96 ZM 1131.00 490.51 C1120.63,492.84 1087.68,493.44 1076.00,491.52 C1059.34,488.77 1039.88,482.06 1027.50,474.78 C989.18,452.24 966.44,417.32 960.93,372.60 C958.36,351.70 961.11,322.59 967.36,304.50 C980.95,265.19 1011.87,234.82 1050.71,222.63 C1084.86,211.92 1122.81,212.64 1156.21,224.63 C1192.60,237.70 1221.30,268.01 1233.86,306.62 C1238.86,321.98 1240.48,333.44 1240.49,353.50 C1240.51,381.26 1236.56,398.34 1224.89,421.00 C1214.42,441.32 1200.30,457.37 1182.39,469.29 C1167.21,479.39 1151.39,485.93 1131.00,490.51 ZM 1552.00 490.16 C1542.17,492.47 1514.05,493.52 1505.03,491.92 C1486.36,488.62 1472.81,481.91 1460.89,470.06 C1453.83,463.05 1451.54,459.96 1448.22,453.00 C1440.76,437.36 1439.31,425.08 1438.50,371.00 C1438.13,346.51 1437.50,331.10 1436.77,328.65 C1435.72,325.17 1435.82,324.64 1437.72,323.15 C1441.27,320.37 1441.99,314.77 1441.99,289.75 L 1442.00 266.00 L 1420.75 265.98 C1409.06,265.98 1398.99,265.64 1398.38,265.23 C1397.67,264.77 1397.03,258.46 1396.65,248.00 C1396.31,238.93 1395.75,228.92 1395.40,225.77 L 1394.76 220.04 L 1442.50 219.50 L 1442.76 186.80 L 1443.03 154.10 L 1468.41 154.15 L 1493.80 154.20 L 1494.52 170.67 C1494.92,179.73 1494.93,193.77 1494.54,201.88 C1493.90,215.18 1494.00,216.75 1495.57,218.06 C1496.99,219.24 1504.33,219.59 1536.40,220.00 L 1575.50 220.50 L 1575.63 240.50 C1575.70,251.50 1575.53,261.74 1575.25,263.25 L 1574.75 266.00 L 1501.00 266.00 L 1501.00 280.59 C1501.00,294.32 1500.87,295.28 1498.84,296.93 C1498.53,297.18 1498.25,297.36 1498.02,297.58 C1496.42,299.08 1496.49,302.35 1496.20,342.26 C1496.01,368.65 1495.90,370.10 1494.00,371.73 C1491.77,373.64 1491.32,377.80 1493.25,378.55 C1494.16,378.90 1494.55,382.99 1494.68,393.49 C1494.96,415.22 1498.22,425.25 1507.93,434.34 C1516.99,442.81 1526.22,445.50 1541.25,444.06 C1551.54,443.08 1558.76,440.72 1567.43,435.50 C1570.63,433.57 1573.34,432.00 1573.45,432.00 C1573.57,432.00 1577.66,441.26 1582.55,452.58 L 1591.43 473.16 L 1588.97 475.11 C1585.76,477.64 1571.89,484.37 1565.50,486.50 C1562.75,487.42 1556.68,489.07 1552.00,490.16 ZM 1085.50 442.52 C1110.29,447.12 1137.39,439.76 1154.50,423.80 C1162.44,416.39 1170.77,405.04 1174.57,396.43 C1181.56,380.64 1184.68,356.27 1182.03,338.17 C1176.64,301.29 1155.55,275.58 1123.50,266.83 C1113.24,264.03 1095.68,263.38 1084.22,265.39 C1051.69,271.08 1027.61,295.23 1019.96,329.82 C1017.58,340.61 1017.31,363.22 1019.44,374.33 C1023.06,393.29 1030.35,407.27 1043.50,420.50 C1055.34,432.41 1068.67,439.40 1085.50,442.52 ZM 776.00 443.39 C788.10,444.87 807.06,442.04 819.00,436.97 C840.41,427.88 857.03,407.23 863.30,381.95 C867.01,366.98 867.33,343.26 864.01,328.56 C854.44,286.16 823.60,262.16 781.50,264.34 C768.02,265.03 759.95,266.99 749.42,272.11 C724.33,284.31 709.30,308.35 705.80,341.84 C704.49,354.37 705.61,370.93 708.58,383.00 C710.91,392.49 719.02,408.51 725.35,416.14 C737.63,430.94 756.30,440.98 776.00,443.39 ZM 1346.35 397.50 L 1345.50 488.50 L 1320.32 488.77 C1306.47,488.91 1294.93,488.69 1294.67,488.27 C1293.83,486.91 1293.66,151.26 1294.48,129.75 L 1295.28 109.00 L 1345.00 109.00 L 1344.99 175.25 C1344.98,211.69 1345.47,256.12 1346.08,274.00 C1346.86,296.53 1346.94,334.42 1346.35,397.50 ZM 179.00 335.62 C173.23,336.49 167.38,337.30 166.00,337.42 C164.62,337.53 149.55,334.16 132.50,329.94 C115.45,325.71 79.11,316.73 51.75,309.98 C24.39,303.23 2.00,297.41 2.00,297.06 C2.00,296.41 6.20,295.61 41.50,289.52 C52.50,287.62 75.68,283.57 93.00,280.52 C110.32,277.46 129.17,274.22 134.88,273.32 C142.40,272.13 145.90,271.10 147.54,269.59 C148.79,268.44 160.41,251.07 173.37,231.00 C186.33,210.93 203.46,184.60 211.43,172.50 C219.40,160.40 228.20,146.90 230.99,142.50 C246.39,118.16 257.00,102.66 257.00,104.50 C257.00,104.92 257.90,104.13 259.00,102.73 C260.10,101.33 261.00,99.45 261.00,98.56 C261.00,96.27 265.38,87.89 268.53,84.14 C270.56,81.74 271.99,81.00 274.62,81.00 C276.74,81.00 278.28,81.57 278.63,82.48 C279.13,83.79 274.43,102.47 261.99,148.50 C259.91,156.20 254.28,177.35 249.49,195.50 C244.70,213.65 239.03,235.01 236.89,242.97 C234.75,250.92 233.00,258.07 233.00,258.85 C233.00,259.96 234.00,260.14 237.61,259.64 C242.41,258.98 251.95,260.69 259.80,263.61 C263.75,265.07 263.95,265.32 262.30,266.57 C261.31,267.32 259.87,267.95 259.10,267.97 C258.32,267.99 255.29,269.14 252.35,270.53 C247.04,273.04 247.00,273.09 247.00,277.60 C247.00,282.68 248.37,286.00 250.48,286.00 C251.25,286.00 252.17,286.46 252.51,287.02 C253.26,288.23 249.50,294.62 247.32,295.84 C245.96,296.60 245.97,297.05 247.46,299.92 C249.20,303.28 248.32,306.00 245.50,306.00 C244.00,306.00 241.48,308.81 242.27,309.60 C242.57,309.90 243.65,310.27 244.66,310.42 C246.03,310.62 246.50,311.55 246.50,314.09 C246.50,317.08 246.14,317.54 243.50,317.99 C241.13,318.40 240.43,319.09 240.18,321.25 C239.97,323.12 239.17,324.15 237.68,324.47 C236.48,324.73 231.45,325.89 226.50,327.04 C216.92,329.26 196.27,332.99 179.00,335.62 ZM 118.29 538.25 C109.40,545.81 101.85,552.00 101.51,552.00 C100.70,552.00 101.08,551.37 109.08,539.50 C122.46,519.67 226.20,362.96 243.55,336.39 C250.63,325.54 253.38,322.12 255.43,321.61 C256.89,321.24 258.52,321.20 259.05,321.53 C260.37,322.35 312.38,314.44 357.50,306.55 C365.20,305.20 375.10,303.60 379.50,302.99 C383.90,302.38 388.97,301.42 390.76,300.86 C392.55,300.30 394.53,300.01 395.15,300.22 C395.24,300.25 395.33,300.26 395.37,300.32 C395.96,301.11 385.09,310.40 169.55,494.52 L 159.04 503.50 C145.51,515.05 127.18,530.69 118.29,538.25 ZM 283.13 68.75 C282.10,72.81 281.36,74.00 279.87,74.00 C276.44,74.00 276.68,71.15 280.64,65.01 C282.76,61.71 284.86,59.01 285.31,59.01 C285.75,59.00 285.77,59.56 285.34,60.25 C284.91,60.94 284.53,61.95 284.51,62.50 C284.49,63.05 283.87,65.86 283.13,68.75 Z" fill="rgb(86,63,242)"/>
<path d="M 283.13 68.75 C283.87,65.86 284.49,63.05 284.51,62.50 C284.53,62.03 284.80,61.22 285.15,60.57 C284.66,62.93 283.71,66.79 282.56,71.05 C281.03,76.68 277.69,89.24 274.50,101.32 C277.66,88.95 278.90,83.19 278.63,82.48 C278.28,81.57 276.74,81.00 274.62,81.00 C271.99,81.00 270.56,81.74 268.53,84.14 C265.38,87.89 261.00,96.27 261.00,98.56 C261.00,99.45 260.10,101.33 259.00,102.73 C257.90,104.13 257.00,104.92 257.00,104.50 C257.00,102.66 246.39,118.16 230.99,142.50 C228.20,146.90 219.40,160.40 211.43,172.50 C203.46,184.60 186.33,210.93 173.37,231.00 C160.41,251.07 148.79,268.44 147.54,269.59 C145.90,271.10 142.40,272.13 134.88,273.32 C129.17,274.22 110.32,277.46 93.00,280.52 C75.68,283.57 52.50,287.62 41.50,289.52 C7.31,295.42 2.30,296.36 2.01,297.00 C2.00,296.99 2.00,296.98 2.00,296.97 C2.00,295.77 12.40,286.78 63.50,243.86 C188.80,138.62 239.22,96.20 247.00,89.49 C251.68,85.47 257.98,80.25 261.00,77.89 C264.02,75.54 268.98,71.32 272.00,68.52 C278.63,62.36 284.89,57.56 285.49,58.16 C285.54,58.21 285.52,58.51 285.44,59.03 C285.40,59.01 285.36,59.01 285.31,59.01 C284.86,59.01 282.76,61.71 280.64,65.01 C276.68,71.15 276.44,74.00 279.87,74.00 C281.36,74.00 282.10,72.81 283.13,68.75 ZM 179.00 335.62 C196.27,332.99 216.92,329.26 226.50,327.04 C231.45,325.89 236.48,324.73 237.68,324.47 C239.17,324.15 239.97,323.12 240.18,321.25 C240.43,319.09 241.13,318.40 243.50,317.99 C246.14,317.54 246.50,317.08 246.50,314.09 C246.50,311.55 246.03,310.62 244.66,310.42 C243.65,310.27 242.57,309.90 242.27,309.60 C241.48,308.81 244.00,306.00 245.50,306.00 C248.32,306.00 249.20,303.28 247.46,299.92 C245.97,297.05 245.96,296.60 247.32,295.84 C249.50,294.62 253.26,288.23 252.51,287.02 C252.17,286.46 251.25,286.00 250.48,286.00 C248.37,286.00 247.00,282.68 247.00,277.60 C247.00,273.09 247.04,273.04 252.35,270.53 C255.29,269.14 258.32,267.99 259.10,267.97 C259.87,267.95 261.31,267.32 262.30,266.57 C263.95,265.32 263.75,265.07 259.80,263.61 C257.93,262.91 255.97,262.29 254.00,261.74 C254.97,262.00 255.98,262.26 257.00,262.52 C293.53,271.88 394.86,299.53 395.69,300.36 C396.16,300.83 377.83,316.60 227.06,445.39 L 192.90 474.57 C385.89,309.72 395.94,301.08 395.37,300.32 C395.33,300.26 395.24,300.25 395.15,300.22 C394.53,300.01 392.55,300.30 390.76,300.86 C388.97,301.42 383.90,302.38 379.50,302.99 C375.10,303.60 365.20,305.20 357.50,306.55 C312.38,314.44 260.37,322.35 259.05,321.53 C258.52,321.20 256.89,321.24 255.43,321.61 C253.38,322.12 250.63,325.54 243.55,336.39 C226.20,362.96 122.46,519.67 109.08,539.50 C104.24,546.68 102.19,549.75 101.50,551.05 C101.53,550.68 101.61,550.23 101.72,549.75 C102.20,547.75 118.99,493.03 132.02,451.00 C134.66,442.48 141.56,420.20 147.34,401.50 C153.13,382.80 159.86,361.08 162.31,353.23 C164.76,345.39 166.41,338.75 165.99,338.49 C165.58,338.24 136.17,330.87 97.51,321.28 C111.55,324.75 124.27,327.90 132.50,329.94 C149.55,334.16 164.62,337.53 166.00,337.42 C167.38,337.30 173.23,336.49 179.00,335.62 ZM 1439.19 401.33 C1439.10,399.17 1439.01,396.90 1438.93,394.50 C1438.39,379.65 1437.48,361.42 1436.91,354.00 C1436.34,346.58 1435.64,336.26 1435.36,331.07 L 1434.85 321.65 L 1438.43 318.38 L 1441.01 316.01 C1440.37,320.03 1439.34,321.88 1437.72,323.15 C1435.82,324.64 1435.72,325.17 1436.77,328.65 C1437.50,331.10 1438.13,346.51 1438.50,371.00 C1438.68,383.00 1438.89,392.95 1439.19,401.33 ZM 1495.24 369.77 C1495.02,381.79 1494.88,391.57 1494.90,394.99 C1495.00,407.65 1496.29,416.28 1499.54,423.14 C1496.19,416.08 1494.86,407.07 1494.68,393.49 C1494.55,382.99 1494.16,378.90 1493.25,378.55 C1491.32,377.80 1491.77,373.64 1494.00,371.73 C1494.55,371.26 1494.95,370.81 1495.24,369.77 ZM 252.19 261.27 C246.48,259.86 240.92,259.19 237.61,259.64 C234.00,260.14 233.00,259.96 233.00,258.85 C233.00,258.35 233.72,255.22 234.81,250.93 C234.30,252.99 234.00,254.37 234.00,254.66 C234.00,255.31 235.69,256.36 237.75,257.00 C239.81,257.63 242.18,258.41 243.00,258.73 C243.63,258.98 247.40,260.02 252.19,261.27 ZM 1575.63 240.50 L 1575.50 220.50 L 1575.67 239.50 C1575.76,249.95 1575.87,259.29 1575.92,260.25 C1575.97,261.43 1576.82,262.00 1578.50,262.00 C1581.29,262.00 1581.95,264.42 1579.42,265.39 C1579.17,265.49 1577.53,265.58 1574.81,265.66 L 1575.25 263.25 C1575.53,261.74 1575.70,251.50 1575.63,240.50 ZM 1498.84 296.93 C1500.77,295.37 1500.98,294.42 1501.00,282.59 C1501.00,298.35 1500.90,299.21 1499.00,299.71 C1497.85,300.01 1496.95,301.14 1496.88,302.37 C1496.77,304.55 1496.59,310.12 1496.40,317.51 C1496.57,300.73 1496.85,298.68 1498.02,297.58 C1498.25,297.36 1498.53,297.18 1498.84,296.93 ZM 2.60 297.31 C6.12,298.47 24.80,303.30 47.74,308.99 C38.91,306.81 30.02,304.63 21.25,302.48 C12.30,300.28 4.73,298.17 2.60,297.31 ZM 1445.84 447.58 C1442.56,439.56 1441.04,432.19 1440.03,417.58 C1441.08,431.74 1442.80,439.90 1445.84,447.58 ZM 118.29 538.25 C109.40,545.81 101.92,552.00 101.66,552.00 C101.63,552.00 101.61,551.99 101.59,551.97 C102.49,551.48 109.78,545.50 118.29,538.25 ZM 240.83 228.20 C243.39,218.57 246.60,206.45 249.49,195.50 C254.28,177.35 259.91,156.20 261.99,148.50 C259.91,156.20 254.29,177.35 249.50,195.50 C246.52,206.78 243.29,218.95 240.83,228.20 Z" fill="rgb(113,95,248)"/>
<path d="M 0.00 309.00 L 0.00 0.00 L 849.00 0.00 L 1698.00 0.00 L 1698.00 309.00 L 1698.00 618.00 L 849.00 618.00 L 0.00 618.00 L 0.00 309.00 ZM 118.29 538.25 C127.18,530.69 145.51,515.05 159.04,503.50 C172.56,491.95 203.17,465.80 227.06,445.39 C377.83,316.60 396.16,300.83 395.69,300.36 C394.86,299.53 293.53,271.88 257.00,262.52 C250.12,260.76 243.82,259.05 243.00,258.73 C242.18,258.41 239.81,257.63 237.75,257.00 C235.69,256.36 234.00,255.31 234.00,254.66 C234.00,254.01 235.53,247.86 237.40,240.99 C239.26,234.12 244.71,213.65 249.50,195.50 C254.29,177.35 259.91,156.20 261.99,148.50 C264.07,140.80 268.79,123.03 272.48,109.00 C276.17,94.97 280.70,77.90 282.56,71.05 C284.41,64.20 285.73,58.40 285.49,58.16 C284.89,57.56 278.63,62.36 272.00,68.52 C268.98,71.32 264.02,75.54 261.00,77.89 C257.98,80.25 251.68,85.47 247.00,89.49 C239.22,96.20 188.80,138.62 63.50,243.86 C12.40,286.78 2.00,295.77 2.00,296.97 C2.00,297.40 10.66,299.88 21.25,302.48 C89.73,319.28 165.34,338.09 165.99,338.49 C166.41,338.75 164.76,345.39 162.31,353.23 C159.86,361.08 153.13,382.80 147.34,401.50 C141.56,420.20 134.66,442.48 132.02,451.00 C118.99,493.03 102.20,547.75 101.72,549.75 C101.43,550.99 101.40,552.00 101.66,552.00 C101.92,552.00 109.40,545.81 118.29,538.25 ZM 809.03 491.96 C847.75,487.18 879.50,468.35 900.24,437.84 C925.98,399.99 931.95,347.09 915.84,299.50 C912.67,290.13 904.43,274.33 898.25,265.74 C891.67,256.60 878.04,243.14 869.50,237.34 C856.25,228.35 839.84,221.51 822.73,217.84 C814.39,216.05 809.08,215.63 794.00,215.57 C773.68,215.49 767.12,216.37 752.08,221.18 C735.47,226.49 724.00,233.22 711.75,244.85 L 706.00 250.30 L 706.00 179.65 L 706.00 109.00 L 677.00 109.00 L 647.99 109.00 L 648.25 298.75 L 648.50 488.50 L 675.50 488.50 L 702.50 488.50 L 702.77 471.25 C702.92,461.76 703.38,454.00 703.80,454.00 C704.21,454.00 707.39,457.40 710.86,461.56 C724.09,477.42 743.81,487.88 767.40,491.54 C777.57,493.12 797.92,493.32 809.03,491.96 ZM 1131.00 490.51 C1151.39,485.93 1167.21,479.39 1182.39,469.29 C1200.30,457.37 1214.42,441.32 1224.89,421.00 C1236.56,398.34 1240.51,381.26 1240.49,353.50 C1240.48,333.44 1238.86,321.98 1233.86,306.62 C1221.30,268.01 1192.60,237.70 1156.21,224.63 C1122.81,212.64 1084.86,211.92 1050.71,222.63 C1011.87,234.82 980.95,265.19 967.36,304.50 C961.11,322.59 958.36,351.70 960.93,372.60 C966.44,417.32 989.18,452.24 1027.50,474.78 C1039.88,482.06 1059.34,488.77 1076.00,491.52 C1087.68,493.44 1120.63,492.84 1131.00,490.51 ZM 1552.00 490.16 C1556.68,489.07 1562.75,487.42 1565.50,486.50 C1571.89,484.37 1585.76,477.64 1588.97,475.11 L 1591.43 473.16 L 1582.55 452.58 C1577.66,441.26 1573.57,432.00 1573.45,432.00 C1573.34,432.00 1570.63,433.57 1567.43,435.50 C1558.76,440.72 1551.54,443.08 1541.25,444.06 C1526.22,445.50 1516.99,442.81 1507.93,434.34 C1498.34,425.37 1495.06,415.45 1494.90,394.99 C1494.82,384.33 1496.37,311.82 1496.88,302.37 C1496.95,301.14 1497.85,300.01 1499.00,299.71 C1500.90,299.21 1501.00,298.35 1501.00,282.59 L 1501.00 266.00 L 1539.42 266.00 C1560.55,266.00 1578.55,265.73 1579.42,265.39 C1581.95,264.42 1581.29,262.00 1578.50,262.00 C1576.82,262.00 1575.97,261.43 1575.92,260.25 C1575.87,259.29 1575.76,249.95 1575.67,239.50 L 1575.50 220.50 L 1536.40 220.00 C1504.33,219.59 1496.99,219.24 1495.57,218.06 C1494.00,216.75 1493.90,215.18 1494.54,201.88 C1494.93,193.77 1494.92,179.73 1494.52,170.67 L 1493.80 154.20 L 1468.41 154.15 L 1443.03 154.10 L 1442.76 186.80 L 1442.50 219.50 L 1418.63 219.77 L 1394.76 220.04 L 1395.40 225.77 C1395.75,228.92 1396.31,238.93 1396.65,248.00 C1397.03,258.46 1397.67,264.77 1398.38,265.23 C1398.99,265.64 1409.06,265.98 1420.75,265.98 L 1442.00 266.00 L 1442.00 290.55 L 1442.00 315.10 L 1438.43 318.38 L 1434.85 321.65 L 1435.36 331.07 C1435.64,336.26 1436.34,346.58 1436.91,354.00 C1437.48,361.42 1438.39,379.65 1438.93,394.50 C1440.25,430.88 1441.50,438.74 1448.25,453.00 C1451.56,460.00 1453.80,463.01 1460.89,470.06 C1472.81,481.91 1486.36,488.62 1505.03,491.92 C1514.05,493.52 1542.17,492.47 1552.00,490.16 ZM 1346.35 397.50 C1346.94,334.42 1346.86,296.53 1346.08,274.00 C1345.47,256.12 1344.98,211.69 1344.99,175.25 L 1345.00 109.00 L 1320.14 109.00 L 1295.28 109.00 L 1294.48 129.75 C1293.66,151.26 1293.83,486.91 1294.67,488.27 C1294.93,488.69 1306.47,488.91 1320.32,488.77 L 1345.50 488.50 L 1346.35 397.50 ZM 776.00 443.39 C756.30,440.98 737.63,430.94 725.35,416.14 C719.02,408.51 710.91,392.49 708.58,383.00 C705.61,370.93 704.49,354.37 705.80,341.84 C709.30,308.35 724.33,284.31 749.42,272.11 C759.95,266.99 768.02,265.03 781.50,264.34 C823.60,262.16 854.44,286.16 864.01,328.56 C867.33,343.26 867.01,366.98 863.30,381.95 C857.03,407.23 840.41,427.88 819.00,436.97 C807.06,442.04 788.10,444.87 776.00,443.39 ZM 1085.50 442.52 C1068.67,439.40 1055.34,432.41 1043.50,420.50 C1030.35,407.27 1023.06,393.29 1019.44,374.33 C1017.31,363.22 1017.58,340.61 1019.96,329.82 C1027.61,295.23 1051.69,271.08 1084.22,265.39 C1095.68,263.38 1113.24,264.03 1123.50,266.83 C1155.55,275.58 1176.64,301.29 1182.03,338.17 C1184.68,356.27 1181.56,380.64 1174.57,396.43 C1170.77,405.04 1162.44,416.39 1154.50,423.80 C1137.39,439.76 1110.29,447.12 1085.50,442.52 Z" fill="rgb(254,254,254)"/>
</g>
</svg>